<?xml version="1.0" encoding="utf-8"?>
<!-- Generator: Adobe Illustrator 18.1.1, SVG Export Plug-In . SVG Version: 6.00 Build 0)  -->
<svg version="1.1" id="Camada_1" xmlns="http://www.w3.org/2000/svg" xmlns:xlink="http://www.w3.org/1999/xlink" x="0px" y="0px"
	 viewBox="0 0 150 146" enable-background="new 0 0 150 146" xml:space="preserve">
<g>
	<path fill="#F2F2F2" d="M150,131l0-0.4c0-0.2-0.1-0.4-0.2-0.6c-0.3-1-1-1.8-2.4-2.3l-8.6-2.5h2c4.8,0,8.3-3.5,8.3-8.3v-86
		c0-2.9-1.5-5.5-3.8-7l-1.3,1.5c1.9,1.1,3.1,3.1,3.1,5.4v86c0,3.7-2.6,6.3-6.3,6.3H132H19.8h-8.6c-3.5,0-6.3-2.8-6.3-6.3v-86
		c0-3.5,2.8-6.3,6.3-6.3H116c0.4-0.7,0.8-1.3,1.3-2H11.2c-4.5,0-8.2,3.7-8.2,8.3v86c0,4.6,3.7,8.3,8.2,8.3h1l-9.9,2.6
		c-1.4,0.2-2,1.2-2.1,2.7c0,0,0,0,0,0l0,0.1c0,0.4,0,0.7,0,1.1L0,139.6c0,4.1,2.4,6.4,6.6,6.4l135.2,0c5.3-0.2,7.8-2.2,8.1-6.5
		l0-6.9C150,132.1,150,131.5,150,131z M2.2,130.6c0.1-0.6,0.2-0.9,0.5-0.9c0,0,0.1,0,0.1,0l17.2-4.5h111.9l14.9,4.4
		c0.8,0.3,1.1,0.8,1.2,1.5l0,1.4c0,0.3-0.1,0.6-0.1,1c0,0.3-0.1,0.7-0.1,1H2.3c-0.1-1.1-0.1-1.9-0.2-2.6L2.2,130.6z M141.8,144H6.6
		c-3.2,0-4.7-1.4-4.7-4.4l0.1-3.2h146l0,3C147.8,142.1,146.7,143.8,141.8,144z"/>
	<path fill="#F2F2F2" d="M113,29.2H13.5c-2.2,0-4,1.8-4,4v81.5c0,2.2,1.8,4,4,4h125c2.2,0,4-1.8,4-4V33.1c0-1.5-0.9-2.8-2.1-3.5
		c-0.4,0.5-0.9,1.1-1.3,1.6c0.8,0.2,1.4,1,1.4,1.9v81.5c0,1.1-0.9,2-2,2h-125c-1.1,0-2-0.9-2-2V33.1c0-1.1,0.9-2,2-2h98.2
		C112.2,30.5,112.6,29.8,113,29.2z"/>
	<path fill="#F2F2F2" d="M28,41.9h76.7c0.2-0.3,0.4-0.7,0.6-1H28c-1.1,0-2,0.9-2,2v8.7c0,1.1,0.9,2,2,2h69c0.2-0.3,0.4-0.7,0.7-1H28
		c-0.6,0-1-0.4-1-1v-8.7C27,42.4,27.5,41.9,28,41.9z"/>
	<path fill="#F2F2F2" d="M126,51.7v-5c-0.3,0.4-0.7,0.8-1,1.2v3.9c0,0.5-0.4,1-1,1h-3.1c-0.3,0.3-0.6,0.7-0.8,1h4
		C125.1,53.6,126,52.8,126,51.7z"/>
	<path fill="#F2F2F2" d="M28,54.8c-1.1,0-2,0.9-2,2v47.7c0,1.1,0.9,2,2,2h26.8c1.1,0,2-0.9,2-2V56.8c0-1.1-0.9-2-2-2H28z M55.8,56.8
		v47.7c0,0.5-0.4,1-1,1H28c-0.6,0-1-0.4-1-1V56.8c0-0.5,0.4-1,1-1h26.8C55.4,55.8,55.8,56.3,55.8,56.8z"/>
	<path fill="#F2F2F2" d="M58,56.8v37.6c0.1-0.7,0.5-1.3,1-1.8V56.8c0-0.5,0.4-1,1-1h35.6c0.2-0.3,0.4-0.7,0.7-1H60
		C58.9,54.8,58,55.7,58,56.8z"/>
	<path fill="#F2F2F2" d="M58,95.6v8.9c0,1.1,0.9,2,2,2h64c1.1,0,2-0.9,2-2V56.8c0-1.1-0.9-2-2-2h-5c-0.3,0.3-0.6,0.7-0.8,1h5.8
		c0.6,0,1,0.4,1,1v47.7c0,0.5-0.4,1-1,1H60c-0.6,0-1-0.4-1-1v-7C58.5,97,58.1,96.3,58,95.6z"/>
	<path fill="#F2F2F2" d="M100.5,50.1C97,55.5,93.4,61,89.9,66.3c-1.5,2.2-3,4.5-4.5,6.7c-1.2,1.8-1.4,3.1-0.5,4.4
		c-1.4-0.5-2.7-0.8-4-0.8l0,0c-4.4,0-7.7,3-9,8.1c-0.1,0.5-0.3,1-0.5,1.6c-0.2,0.4-0.3,0.9-0.5,1.3c-1,3.4-3,4.9-6.4,5l-0.4,0
		c-0.6,0-1.3,0-1.9,0.1c-0.4,0-0.8,0.1-1.1,0.1c-0.1,0-0.3,0-0.4,0.1c-1,0.1-1.8,1.1-1.7,2.1l0,0.4c0.1,0.8,0.6,1.5,1.4,1.7
		c0.1,0,0.2,0.1,0.3,0.1c0.3,0.1,0.6,0.2,1,0.3c3.1,0.7,6.3,1,9.4,1c3.5,0,7.1-0.4,10.6-1.2c3-0.7,5.9-1.8,8.5-3.2
		c3.6-2,4.6-6,2.6-10c-0.2-0.3-0.3-0.6-0.5-0.9c0.1,0,0.2,0,0.3,0c1.6,0,2.5-1.2,3.1-2c0.4-0.5,0.9-1.1,1.3-1.7
		c0.6-0.8,1.1-1.5,1.7-2.2c14.8-17.5,29.7-34.9,44.5-52.4l2.6-3.1c1.9-2.2,3.2-4.8,3.9-7.6c1-3.9,0.4-7.7-1.7-10.4
		c-1.8-2.4-4.6-3.8-7.9-3.9c0,0,0,0-0.1,0c0,0-0.1,0-0.1,0c-4.4,0.2-8.3,2.7-11.3,7.2c-4.8,7.3-9.6,14.7-14.3,21.9
		C109.7,36.1,105.1,43.1,100.5,50.1z M89.2,92.3c-2.5,1.4-5.2,2.4-8,3c-3.4,0.8-6.8,1.2-10.2,1.2c-3,0-6-0.3-9-1
		c-0.4-0.1-0.7-0.2-1.1-0.3c0-0.1,0-0.2,0-0.4c0.4-0.1,0.9-0.2,1.3-0.2c0.8,0,1.5-0.1,2.3-0.1c4.1-0.1,6.9-2.1,8.2-6.4
		c0.3-1,0.7-2,1-3c1.2-4.8,4-6.6,7.1-6.6c0,0,0,0,0,0c0,0,0,0,0,0c1.5,0,3,0.4,4.5,1.1c2.3,1.1,4.3,2.8,5.6,5.2
		C92.4,87.9,91.9,90.8,89.2,92.3z M130.2,8.3c2.5-3.8,5.8-6.1,9.7-6.3c6.1,0.2,9.3,5.5,7.8,11.9c-0.6,2.6-1.8,4.8-3.5,6.8
		c-15.7,18.5-31.4,37-47.1,55.5c-1.1,1.2-2,2.6-3,3.9c-0.6,0.8-1.1,1.2-1.5,1.2c-0.4,0-0.9-0.3-1.5-0.9c-1.2-1-2.4-2-3.5-3.1
		c-1.4-1.2-1.4-1.6-0.4-3.2l15.1-22.8L130.2,8.3z"/>
	<path fill="#F2F2F2" d="M133,9.8c0.6,0.6,1.6,0.6,2.3-0.1c1.7-1.8,3.3-3.5,5-5.3c-0.1,0-0.3,0-0.4,0c-2.8,0-5.2,0.9-7.1,3.2
		C132.3,8.3,132.4,9.2,133,9.8C133,9.8,133,9.8,133,9.8z"/>
</g>
</svg>
